<svg version="1.2" xmlns="http://www.w3.org/2000/svg" viewBox="0 0 384 146" width="384" height="146"><style>.A{fill:#fff}</style><path class="A" d="m21.3 71l-20.8 27.4v-9.4l20.8-26.5z"/><path class="A" d="m13.2 100.4v35.6l-4-5.5l-0.1-24.3z"/><path class="A" d="m0.7 65.6l35-43.1v15.6l-35 43.8z"/><path class="A" d="m13.2 72.8v73.3h-12.7v-57.2z"/><path class="A" d="m360.7 7.2l2.6 3.1c-89.2 0.4-204.2 0.9-293.4 0.2v-3c87.6 0 203.1-0.3 290.8-0.3z"/><path class="A" d="m69.8 22.1v-3.1c89.2-0.7 204.2-0.2 293.3 0.2l-2.6 3.1c-87.6 0-203.1-0.2-290.7-0.2z"/><path class="A" d="m21.6 85.4h-5.5l53.7-66.4l3.3 2.7z"/><path class="A" d="m358.6 3.1c8-4.7 18.3-2.1 23 5.8c4.8 8 2.2 18.3-5.8 23c-8 4.8-18.3 2.2-23-5.8c-4.8-7.9-2.2-18.2 5.8-23z"/></svg>